# xmcd CD database file
#
# Track frame offsets:
#	150
#	24985
#	52490
#	64956
#	88980
#	115358
#	144096
#	166870
#	185519
#	223601
#
# Disc length: 3241 seconds
#
# Revision: 0
# Processed by: cddbd v1.5.2PL0 Copyright (c) Steve Scherf et al.
# Submitted via: CDex 1.70beta2
#
DISCID=930ca70a
DTITLE=Boyan Vodenitcharov Steve Houben - Darker Scales
DYEAR=2011
DGENRE=Jazz
TTITLE0=Boyan Vodenitcharov Steve Houben - Winter Flags
TTITLE1=Boyan Vodenitcharov Steve Houben - Descendants
TTITLE2=Boyan Vodenitcharov Steve Houben - Lime Limit
TTITLE3=Boyan Vodenitcharov Steve Houben - Untitled Ballad
TTITLE4=Boyan Vodenitcharov Steve Houben - Dar
TTITLE5=Boyan Vodenitcharov Steve Houben - Nothing New
TTITLE6=Boyan Vodenitcharov Steve Houben - Interlude
TTITLE7=Boyan Vodenitcharov Steve Houben - Shy
TTITLE8=Boyan Vodenitcharov Steve Houben - Darker scales
TTITLE9=Boyan Vodenitcharov Steve Houben - Almost There
EXTD=YEAR: 2011
EXTT0=
EXTT1=
EXTT2=
EXTT3=
EXTT4=
EXTT5=
EXTT6=
EXTT7=
EXTT8=
EXTT9=
PLAYORDER=
